solid OpenSCAD_Model
  facet normal -1 0 0
    outer loop
      vertex 12 0.7 0
      vertex 12 38.7 20
      vertex 12 38.7 0
    endloop
  endfacet
  facet normal -1 -0 0
    outer loop
      vertex 12 38.7 20
      vertex 12 0.7 0
      vertex 12 0.7 20
    endloop
  endfacet
  facet normal -0 0 1
    outer loop
      vertex 15 11.7 4
      vertex 28.5 0.7 4
      vertex 28.5 11.7 4
    endloop
  endfacet
  facet normal 0 0 1
    outer loop
      vertex 28.5 0.7 4
      vertex 15 11.7 4
      vertex 15 0.7 4
    endloop
  endfacet
  facet normal 1 -0 0
    outer loop
      vertex 28.5 0.7 4
      vertex 28.5 11.7 0
      vertex 28.5 11.7 4
    endloop
  endfacet
  facet normal 1 0 0
    outer loop
      vertex 28.5 11.7 0
      vertex 28.5 0.7 4
      vertex 28.5 0.7 0
    endloop
  endfacet
  facet normal 0 0 -1
    outer loop
      vertex -12 0.7 0
      vertex -15 11.7 0
      vertex -12 38.7 0
    endloop
  endfacet
  facet normal 0 0 -1
    outer loop
      vertex -28.5 0.7 0
      vertex -15 11.7 0
      vertex -12 0.7 0
    endloop
  endfacet
  facet normal -0 0 -1
    outer loop
      vertex -15 11.7 0
      vertex -28.5 0.7 0
      vertex -28.5 11.7 0
    endloop
  endfacet
  facet normal 0 0 -1
    outer loop
      vertex 28.5 0.7 0
      vertex 15 11.7 0
      vertex 28.5 11.7 0
    endloop
  endfacet
  facet normal 0 0 -1
    outer loop
      vertex 12 0.7 0
      vertex 15 11.7 0
      vertex 28.5 0.7 0
    endloop
  endfacet
  facet normal 0 0 -1
    outer loop
      vertex 12 38.7 0
      vertex 15 11.7 0
      vertex 12 0.7 0
    endloop
  endfacet
  facet normal 0 0 -1
    outer loop
      vertex 15 11.7 0
      vertex 12 38.7 0
      vertex 15 41.7 0
    endloop
  endfacet
  facet normal 0 0 -1
    outer loop
      vertex -12 38.7 0
      vertex 15 41.7 0
      vertex 12 38.7 0
    endloop
  endfacet
  facet normal 0 0 -1
    outer loop
      vertex -12 38.7 0
      vertex -15 41.7 0
      vertex 15 41.7 0
    endloop
  endfacet
  facet normal 0 0 -1
    outer loop
      vertex -15 41.7 0
      vertex -12 38.7 0
      vertex -15 11.7 0
    endloop
  endfacet
  facet normal 0 -1 0
    outer loop
      vertex 12 0.7 20
      vertex 15 0.7 4
      vertex 15 0.7 20
    endloop
  endfacet
  facet normal 0 -1 0
    outer loop
      vertex 12 0.7 0
      vertex 15 0.7 4
      vertex 12 0.7 20
    endloop
  endfacet
  facet normal 0 -1 0
    outer loop
      vertex 28.5 0.7 0
      vertex 15 0.7 4
      vertex 12 0.7 0
    endloop
  endfacet
  facet normal 0 -1 0
    outer loop
      vertex 15 0.7 4
      vertex 28.5 0.7 0
      vertex 28.5 0.7 4
    endloop
  endfacet
  facet normal 0 1 -0
    outer loop
      vertex 28.5 11.7 0
      vertex 15 11.7 4
      vertex 28.5 11.7 4
    endloop
  endfacet
  facet normal 0 1 0
    outer loop
      vertex 15 11.7 4
      vertex 28.5 11.7 0
      vertex 15 11.7 0
    endloop
  endfacet
  facet normal -1 0 0
    outer loop
      vertex -28.5 0.7 0
      vertex -28.5 11.7 4
      vertex -28.5 11.7 0
    endloop
  endfacet
  facet normal -1 -0 0
    outer loop
      vertex -28.5 11.7 4
      vertex -28.5 0.7 0
      vertex -28.5 0.7 4
    endloop
  endfacet
  facet normal -0 0 1
    outer loop
      vertex -28.5 11.7 4
      vertex -15 0.7 4
      vertex -15 11.7 4
    endloop
  endfacet
  facet normal 0 0 1
    outer loop
      vertex -15 0.7 4
      vertex -28.5 11.7 4
      vertex -28.5 0.7 4
    endloop
  endfacet
  facet normal 1 -0 0
    outer loop
      vertex -12 0.7 20
      vertex -12 38.7 0
      vertex -12 38.7 20
    endloop
  endfacet
  facet normal 1 0 0
    outer loop
      vertex -12 38.7 0
      vertex -12 0.7 20
      vertex -12 0.7 0
    endloop
  endfacet
  facet normal 0 -1 0
    outer loop
      vertex -28.5 0.7 4
      vertex -28.5 0.7 0
      vertex -15 0.7 4
    endloop
  endfacet
  facet normal 0 -1 0
    outer loop
      vertex -15 0.7 4
      vertex -12 0.7 20
      vertex -15 0.7 20
    endloop
  endfacet
  facet normal 0 -1 0
    outer loop
      vertex -15 0.7 4
      vertex -12 0.7 0
      vertex -12 0.7 20
    endloop
  endfacet
  facet normal 0 -1 0
    outer loop
      vertex -12 0.7 0
      vertex -15 0.7 4
      vertex -28.5 0.7 0
    endloop
  endfacet
  facet normal 0 1 -0
    outer loop
      vertex -15 11.7 0
      vertex -28.5 11.7 4
      vertex -15 11.7 4
    endloop
  endfacet
  facet normal 0 1 0
    outer loop
      vertex -28.5 11.7 4
      vertex -15 11.7 0
      vertex -28.5 11.7 0
    endloop
  endfacet
  facet normal 0 0 1
    outer loop
      vertex 15 41.7 20
      vertex 12 38.7 20
      vertex 15 0.7 20
    endloop
  endfacet
  facet normal 0 0 1
    outer loop
      vertex 15 41.7 20
      vertex -12 38.7 20
      vertex 12 38.7 20
    endloop
  endfacet
  facet normal -0 0 1
    outer loop
      vertex -15 41.7 20
      vertex -12 38.7 20
      vertex 15 41.7 20
    endloop
  endfacet
  facet normal 0 0 1
    outer loop
      vertex -15 0.7 20
      vertex -12 38.7 20
      vertex -15 41.7 20
    endloop
  endfacet
  facet normal 0 0 1
    outer loop
      vertex -12 38.7 20
      vertex -15 0.7 20
      vertex -12 0.7 20
    endloop
  endfacet
  facet normal 0 0 1
    outer loop
      vertex 15 0.7 20
      vertex 12 38.7 20
      vertex 12 0.7 20
    endloop
  endfacet
  facet normal 1 0 0
    outer loop
      vertex 15 41.7 20
      vertex 15 11.7 4
      vertex 15 41.7 0
    endloop
  endfacet
  facet normal 1 -0 0
    outer loop
      vertex 15 0.7 20
      vertex 15 11.7 4
      vertex 15 41.7 20
    endloop
  endfacet
  facet normal 1 0 0
    outer loop
      vertex 15 11.7 4
      vertex 15 0.7 20
      vertex 15 0.7 4
    endloop
  endfacet
  facet normal 1 0 0
    outer loop
      vertex 15 41.7 0
      vertex 15 11.7 4
      vertex 15 11.7 0
    endloop
  endfacet
  facet normal 0 1 -0
    outer loop
      vertex 15 41.7 0
      vertex -15 41.7 20
      vertex 15 41.7 20
    endloop
  endfacet
  facet normal 0 1 0
    outer loop
      vertex -15 41.7 20
      vertex 15 41.7 0
      vertex -15 41.7 0
    endloop
  endfacet
  facet normal -1 0 0
    outer loop
      vertex -15 11.7 4
      vertex -15 41.7 0
      vertex -15 11.7 0
    endloop
  endfacet
  facet normal -1 0 0
    outer loop
      vertex -15 41.7 0
      vertex -15 11.7 4
      vertex -15 41.7 20
    endloop
  endfacet
  facet normal -1 0 0
    outer loop
      vertex -15 0.7 20
      vertex -15 11.7 4
      vertex -15 0.7 4
    endloop
  endfacet
  facet normal -1 0 0
    outer loop
      vertex -15 11.7 4
      vertex -15 0.7 20
      vertex -15 41.7 20
    endloop
  endfacet
  facet normal 0 -1 0
    outer loop
      vertex -12 38.7 0
      vertex 12 38.7 20
      vertex -12 38.7 20
    endloop
  endfacet
  facet normal 0 -1 -0
    outer loop
      vertex 12 38.7 20
      vertex -12 38.7 0
      vertex 12 38.7 0
    endloop
  endfacet
endsolid OpenSCAD_Model
